<?xml version="1.0" standalone="no"?>
<!DOCTYPE svg PUBLIC "-//W3C//DTD SVG 20010904//EN"
 "http://www.w3.org/TR/2001/REC-SVG-20010904/DTD/svg10.dtd">
<svg version="1.0" xmlns="http://www.w3.org/2000/svg"
 width="1340.000000pt" height="1340.000000pt" viewBox="0 0 1340.000000 1340.000000"
 preserveAspectRatio="xMidYMid meet">
<metadata>
Created by potrace 1.11, written by Peter Selinger 2001-2013
</metadata>
<g transform="translate(0.000000,1340.000000) scale(0.100000,-0.100000)"
fill="#000000" stroke="none">
<path d="M5070 9273 c-6 -16 -15 -41 -21 -58 -6 -16 -15 -39 -19 -50 -4 -11
-16 -42 -25 -70 -10 -27 -28 -77 -40 -110 -13 -33 -51 -136 -85 -230 -34 -93
-65 -179 -70 -190 -14 -30 -61 -167 -67 -192 -3 -13 -8 -23 -12 -23 -4 0 -8
-8 -9 -17 -1 -10 -29 -90 -62 -178 -34 -88 -62 -164 -64 -170 -2 -5 -5 -17 -8
-25 -3 -8 -13 -37 -23 -65 -9 -27 -21 -59 -26 -70 -5 -11 -24 -63 -43 -115
-18 -52 -49 -138 -69 -190 -52 -140 -214 -584 -301 -825 -42 -115 -81 -218
-86 -227 -6 -10 -10 -22 -10 -27 0 -5 -5 -22 -12 -38 -6 -15 -12 -32 -14 -38
-1 -5 -43 -120 -93 -255 -50 -134 -91 -250 -91 -257 0 -7 -4 -13 -8 -13 -5 0
-9 -6 -9 -13 0 -6 -26 -82 -57 -167 -32 -85 -78 -211 -103 -280 -25 -69 -49
-134 -53 -145 -5 -11 -25 -65 -45 -120 -19 -55 -40 -109 -45 -120 -4 -11 -23
-63 -41 -115 -18 -52 -35 -99 -39 -105 -4 -5 -10 -19 -13 -30 -3 -11 -23 -71
-46 -132 l-40 -113 220 0 c200 0 220 2 225 18 3 9 12 33 19 52 21 56 28 74 31
85 2 12 72 203 81 225 3 8 7 20 9 25 1 6 23 69 49 140 74 207 140 390 188 525
25 69 62 170 82 225 20 55 38 107 40 115 2 8 25 71 50 140 26 69 48 132 50
140 2 8 9 29 16 45 6 17 13 35 15 40 1 6 18 53 37 105 83 229 180 500 199 555
10 33 24 69 29 80 5 11 31 83 58 160 27 77 68 192 91 255 23 63 63 177 90 252
26 75 51 142 55 147 3 6 8 19 10 28 2 10 24 74 50 143 25 69 48 132 50 140 2
8 4 15 5 15 1 0 3 7 5 15 2 8 27 78 55 155 28 77 58 160 67 185 8 25 20 56 26
70 6 14 11 27 11 30 4 22 41 120 46 120 3 0 13 -21 22 -47 9 -27 35 -100 58
-163 23 -63 45 -126 50 -140 4 -14 27 -77 49 -140 23 -63 55 -151 71 -195 15
-44 47 -132 69 -195 23 -63 50 -140 60 -170 11 -30 25 -68 32 -85 7 -16 13
-33 14 -37 2 -5 3 -9 5 -10 1 -2 3 -10 5 -18 2 -8 24 -71 48 -140 84 -234 138
-385 144 -400 4 -8 7 -17 7 -20 3 -11 59 -166 67 -185 5 -11 31 -85 59 -165
28 -80 65 -181 81 -225 17 -44 32 -87 34 -95 2 -8 4 -16 5 -17 2 -2 3 -6 4
-10 1 -5 4 -12 7 -18 4 -5 12 -28 18 -50 7 -22 19 -56 26 -75 8 -19 37 -100
65 -180 28 -80 56 -154 61 -165 6 -12 11 -28 13 -38 1 -9 5 -20 9 -23 4 -4 7
-17 7 -29 0 -11 4 -25 9 -30 8 -9 46 -111 92 -250 11 -33 23 -67 26 -75 4 -8
7 -17 8 -20 1 -3 6 -16 12 -30 5 -14 24 -68 42 -120 18 -52 36 -104 41 -115 5
-11 32 -85 60 -165 28 -80 60 -167 70 -195 10 -27 30 -81 43 -120 l25 -70 221
-3 221 -2 -14 37 c-8 21 -29 79 -46 128 -17 50 -35 99 -40 110 -11 27 -38 100
-105 285 -97 267 -113 310 -134 363 -5 12 -21 54 -34 92 -36 103 -186 514
-202 555 -7 19 -23 62 -35 95 -12 33 -36 96 -52 140 -16 44 -31 85 -32 90 -2
6 -8 24 -15 40 -7 17 -24 64 -38 105 -14 41 -30 79 -34 84 -5 6 -9 20 -9 32 0
13 -4 25 -9 28 -5 3 -11 16 -14 28 -2 13 -18 59 -35 103 -16 44 -51 139 -76
210 -26 72 -51 139 -56 150 -4 11 -17 45 -28 75 -11 30 -23 64 -28 75 -4 11
-8 26 -10 34 -1 7 -7 18 -13 24 -6 6 -11 18 -11 26 0 8 -22 73 -49 145 -27 72
-61 165 -76 206 -15 41 -40 109 -55 150 -15 41 -64 176 -109 300 -45 124 -88
242 -96 263 -30 74 -67 175 -120 322 -20 55 -44 123 -55 150 -10 28 -43 118
-74 200 l-54 150 -201 3 -201 2 -10 -27z"/>
<path d="M9729 9279 c-9 -5 -55 -118 -110 -269 -11 -30 -24 -64 -29 -75 -15
-33 -150 -384 -178 -465 -15 -41 -30 -76 -34 -78 -5 -2 -8 -9 -8 -16 0 -7 -12
-41 -26 -77 -14 -35 -27 -68 -28 -74 -2 -5 -7 -19 -11 -30 -39 -96 -115 -302
-115 -312 0 -7 -4 -13 -10 -13 -5 0 -10 -6 -10 -14 0 -8 -30 -90 -66 -183 -36
-92 -77 -199 -91 -238 -14 -38 -31 -83 -38 -100 -15 -34 -135 -344 -139 -360
-2 -5 -7 -19 -11 -30 -5 -11 -17 -42 -27 -70 -10 -27 -23 -59 -28 -70 -5 -11
-35 -87 -66 -170 -32 -82 -73 -190 -92 -240 -19 -49 -40 -106 -48 -126 -7 -19
-38 -100 -69 -180 -31 -79 -58 -148 -59 -154 -2 -5 -8 -23 -14 -38 -7 -16 -12
-30 -12 -33 0 -2 -8 -23 -19 -47 -10 -23 -35 -87 -55 -142 -21 -55 -44 -112
-52 -127 -8 -14 -14 -33 -14 -41 0 -7 -7 -28 -16 -46 -9 -17 -17 -37 -18 -44
-2 -7 -7 -21 -11 -32 -5 -11 -17 -42 -27 -70 -10 -27 -23 -59 -27 -70 -8 -17
-21 -50 -26 -65 -1 -3 -6 -16 -12 -30 -6 -14 -20 -52 -32 -85 -12 -33 -25 -69
-30 -80 -9 -21 -89 -227 -142 -370 -17 -44 -36 -93 -43 -110 -8 -16 -30 -75
-51 -130 -20 -55 -41 -109 -46 -120 -4 -11 -17 -42 -27 -70 -11 -27 -23 -58
-27 -67 -7 -17 5 -18 174 -18 l181 0 12 27 c6 16 12 30 12 33 3 9 88 233 117
305 7 17 13 35 15 40 1 6 8 24 15 40 7 17 13 32 14 35 4 13 18 47 25 65 5 11
41 106 81 210 39 105 78 202 85 217 8 15 14 31 14 35 -1 9 97 268 112 297 5
10 11 26 13 35 2 9 29 81 60 161 32 80 58 151 59 158 1 7 8 18 14 24 7 7 12
18 12 25 0 11 51 148 95 258 4 11 9 25 10 31 2 6 10 27 18 45 9 19 59 149 113
289 53 140 119 311 145 380 26 69 75 197 109 285 33 88 63 167 67 175 3 8 7
20 9 25 1 6 21 55 43 110 22 55 41 104 41 108 0 5 6 23 14 40 8 18 28 68 45
112 17 44 36 94 42 110 7 17 13 32 13 35 1 6 23 61 42 105 7 17 27 71 45 120
18 50 36 94 41 100 4 5 8 15 8 23 0 8 6 28 14 45 8 18 51 129 96 247 45 118
97 253 115 300 18 47 44 114 58 150 13 36 44 115 67 175 24 61 43 116 43 123
0 6 4 12 8 12 8 0 22 55 17 67 -4 9 -325 11 -339 2z"/>
<path d="M2655 8038 c-27 -12 -53 -27 -57 -33 -4 -5 -8 -7 -8 -3 0 3 -75 -29
-167 -71 -160 -75 -227 -105 -338 -156 -117 -53 -154 -69 -220 -100 -60 -28
-407 -187 -585 -268 -30 -13 -84 -38 -120 -55 -36 -16 -166 -75 -290 -131
-124 -56 -232 -106 -240 -111 -8 -6 -22 -13 -30 -16 -8 -3 -33 -14 -55 -24
-40 -18 -103 -47 -200 -90 -27 -12 -77 -35 -110 -50 -33 -15 -99 -46 -147 -68
l-88 -41 0 -166 0 -166 38 -16 c20 -8 80 -35 132 -60 52 -25 138 -65 190 -88
52 -24 129 -59 170 -78 41 -19 127 -58 190 -87 244 -112 710 -325 785 -360 33
-15 100 -46 148 -69 49 -23 90 -41 92 -41 2 0 60 -27 130 -60 70 -33 128 -60
130 -60 3 0 42 -17 87 -39 144 -67 221 -103 278 -128 30 -14 78 -35 105 -48
190 -88 228 -105 230 -105 2 0 3 93 3 206 l0 206 -76 34 c-43 19 -86 38 -97
43 -11 5 -36 16 -55 24 -19 9 -120 52 -225 97 -104 44 -208 89 -230 99 -22 11
-69 31 -105 46 -36 15 -83 35 -105 45 -22 10 -121 53 -220 95 -99 43 -204 88
-233 101 -29 13 -55 24 -57 24 -2 0 -28 11 -57 24 -29 14 -174 77 -323 141
-148 63 -281 121 -295 127 -14 6 -27 12 -30 13 -3 0 -26 10 -51 22 -26 11 -63
27 -83 34 -20 7 -36 16 -36 19 0 4 46 26 103 50 56 24 136 59 177 78 41 18 84
37 95 42 91 39 336 145 360 156 76 34 587 254 591 254 2 0 39 16 81 36 75 34
126 56 168 73 11 5 58 25 105 46 131 58 138 60 255 110 61 26 128 55 150 65
22 10 63 27 90 39 28 12 62 27 76 33 l27 12 1 208 c1 114 0 208 -1 208 -2 -1
-25 -10 -53 -22z"/>
<path d="M10629 8053 c0 -5 -1 -95 -2 -201 -2 -184 -1 -192 18 -199 11 -3 46
-18 77 -33 31 -15 59 -25 62 -22 4 3 6 0 6 -7 0 -7 4 -10 9 -6 5 3 12 1 15 -4
3 -5 17 -12 31 -15 14 -4 49 -17 78 -30 28 -13 81 -36 117 -51 36 -15 83 -36
105 -45 22 -10 96 -42 165 -70 69 -29 131 -57 138 -62 6 -6 12 -8 12 -5 0 5
50 -16 165 -68 34 -15 87 -38 95 -40 3 0 27 -11 54 -23 27 -12 50 -22 52 -22
2 0 27 -11 56 -24 30 -14 76 -33 103 -44 28 -11 68 -28 90 -38 22 -10 42 -18
45 -19 7 -2 60 -24 97 -41 18 -8 49 -21 68 -29 19 -8 50 -21 68 -29 17 -8 61
-27 97 -41 36 -15 85 -36 110 -47 55 -25 69 -30 253 -109 81 -34 144 -65 140
-69 -5 -3 -154 -68 -333 -144 -179 -76 -343 -146 -365 -156 -22 -10 -69 -30
-105 -44 -36 -15 -83 -35 -105 -45 -22 -10 -116 -51 -210 -91 -93 -40 -183
-78 -200 -85 -82 -37 -551 -237 -560 -239 -5 -1 -37 -15 -70 -30 -33 -16 -66
-29 -72 -29 -7 0 -13 -4 -13 -9 0 -4 -9 -8 -19 -8 -11 0 -22 -4 -25 -9 -3 -5
-17 -12 -30 -15 -14 -3 -53 -19 -88 -35 -35 -15 -78 -34 -95 -41 -29 -11 -33
-17 -34 -49 -1 -49 -1 -308 0 -348 l1 -32 88 40 c48 22 101 46 117 54 17 7 59
27 95 43 36 16 169 75 295 132 127 56 236 107 243 112 6 6 12 7 12 3 0 -4 11
0 25 9 13 9 31 16 40 16 8 0 15 5 15 10 0 6 6 10 13 10 8 0 27 6 43 14 16 8
81 37 144 66 63 28 133 60 155 70 22 10 58 26 80 35 22 9 47 21 55 26 8 5 22
12 30 15 22 9 144 63 230 102 41 18 91 41 110 49 19 8 53 23 75 33 22 10 63
28 90 40 28 12 92 42 144 66 51 24 95 44 98 44 4 0 45 18 163 73 36 17 67 31
70 32 3 0 28 12 55 25 28 13 52 24 55 24 3 1 55 24 117 51 l112 50 1 165 0
165 -27 12 c-16 7 -50 22 -78 34 -27 12 -84 37 -125 56 -68 32 -117 54 -130
58 -3 1 -26 11 -52 23 -27 12 -67 30 -90 41 -24 10 -68 30 -98 44 -30 14 -95
43 -145 65 -49 22 -117 52 -150 67 -84 37 -101 45 -270 120 -168 74 -201 89
-296 134 -37 17 -69 31 -73 31 -3 0 -37 15 -75 34 -38 19 -72 32 -74 30 -2 -3
-10 2 -17 11 -7 8 -19 15 -26 15 -8 0 -42 13 -77 29 -78 37 -134 62 -322 146
-141 62 -173 77 -277 124 -108 49 -360 161 -364 161 -2 0 -4 -3 -5 -7z"/>
</g>
</svg>
